<?xml version="1.0" encoding="utf-8"?>
<!-- Generator: Adobe Illustrator 19.0.0, SVG Export Plug-In . SVG Version: 6.00 Build 0)  -->
<svg version="1.1" id="Layer_1" xmlns="http://www.w3.org/2000/svg" xmlns:xlink="http://www.w3.org/1999/xlink" x="0px" y="0px"
	 viewBox="-418 127.7 497 496.3" style="enable-background:new -418 127.7 497 496.3;" xml:space="preserve">
<style type="text/css">
	.st0{fill:#5D5D5D;}
</style>
<title>자산 1</title>
<g id="레이어_2">
	<g id="레이어_1-2">
		<path class="st0" d="M-121.1,508.7c0.7-2.4,1.3-4.7,2.2-7c4.8-13.1,9.6-26.2,14.4-39.3c0.4-0.9,0.6-1.8,0.8-2.8
			c1-6.5,6.4-8.8,11.2-11.5c7.1-4.1,14.3-8.2,21.5-12.3c11.4-6.5,22.8-13,34.1-19.6c10.4-6,20.8-12.1,31.2-18.1
			c6.7-3.8,13.4-7.5,20.1-11.3c1.5-1,3-2.1,4.5-3.2l-101.2-58.2c-3.1,9.1-5.9,17.1-8.7,25.2c-2.2,6.2-4.7,12.4-6.9,18.6
			c-3.9,10.7-7.7,21.4-11.5,32.1c-2.1,5.8-4.3,11.6-6.5,17.4c-2.7,7.2-5.3,14.4-8,21.6c-3.8,10.3-7.6,20.7-11.3,31
			c-4.2,11.8-8.3,23.7-12.6,35.6c-3.5,9.8-7.2,19.5-10.8,29.3c-3.3,9-6.6,18.1-9.8,27.2c-4.2,11.6-8.2,23.2-12.4,34.8
			c-2.7,7.5-5.7,15-8.4,22.5c-0.9,2.4-2.1,3.4-4.8,3.4c-9.9-0.1-19.8,0-29.7-0.1c-1,0-1.9-0.1-3.3-0.2c1-3.4,1.9-6.6,2.9-9.8
			c5.2-16.1,10.5-32.2,15.7-48.2c3.7-11.3,7.7-22.6,11.4-33.9c3.2-9.8,6.2-19.6,9.3-29.4c3.2-10.2,6.4-20.4,9.7-30.6
			c2.4-7.3,5.1-14.5,7.6-21.8c3-9.2,5.9-18.4,8.9-27.6c3.1-9.6,6.3-19.2,9.4-28.8c3.5-10.8,7-21.6,10.5-32.4
			c5.3-16,10.5-32.1,15.8-48.1c2.3-7,4.4-14.1,6.9-21.1c2.5-7.5,8.8-13.2,16.5-14.9c9-2.3,17.1,0.1,24.8,4.7c8.4,5,17,9.6,25.4,14.5
			c11.5,6.6,22.9,13.2,34.4,19.8c12.2,7,24.5,13.9,36.6,20.9c14.5,8.4,29,17,43.5,25.4c4.7,2.7,9.6,4.9,13,9.5
			c6.7,9.1,4.6,22.1-4.8,28c-14.7,9.1-29.8,17.5-44.8,26.2c-15.2,8.7-30.4,17.4-45.6,26c-13.2,7.5-26.4,15-39.6,22.6
			c-14.5,8.3-28.9,16.6-43.3,25c-4.6,2.6-9.1,5.4-13.7,8c-1.1,0.6-2.3,1.1-3.5,1.5L-121.1,508.7z"/>
		<path class="st0" d="M-213.1,256.2c-2.1,5.9-4.1,11.8-6.3,17.6c-4.2,11.5-8.6,22.9-12.5,34.5c-1.4,4.3-5.1,5.1-8.1,7
			c-5,3.3-10.3,6.1-15.4,9c-8.8,5.1-17.7,10.1-26.5,15.2c-7.8,4.5-15.6,9-23.4,13.6c-11.8,6.9-23.6,13.8-35.4,20.6
			c-4.8,2.8-9.6,5.4-14.4,8.2c-0.9,0.7-1.8,1.4-2.6,2.2c2.5,1.8,4.6,3.4,6.9,4.9c7.9,5.1,15.9,10.2,23.8,15.4
			c15.2,9.9,30.2,20.1,45.6,29.6c11.4,7,23.4,13,35.2,19.5c3.3,1.8,4.1,1.3,4-2.4c-0.4-18.5-0.7-37.1-1.4-55.6
			c-0.4-5.8,1.9-11.5,6.2-15.5c5.7-5.5,11.3-11.1,16.8-16.8c2.3-2.4,5.1-3.8,7.9-2.9c7.5,2.2,14.8,4.8,22,7.8
			c3.1,1.3,4.2,4.6,4.6,8.1c0.7,6.8,1.7,13.6,2.5,20.4c0.9,7.5-0.5,14-5.8,19.9c-9.8,11.1-18.9,22.8-28.4,34.2
			c-2.3,2.8-4.7,5.5-6.7,8.5c-1.6,2.3-4.1,3.9-6.9,4.4c-10.7,2.4-21.6,3.7-32.6,2.6c-8.1-0.8-16.1-2.3-23.9-4.7
			c-12.8-4-25.6-8.3-37.7-13.9c-14.3-6.6-28-14.7-41.9-22.3c-6.8-3.7-13.5-7.8-20.2-11.7c-7.6-4.4-15.4-8.5-22.6-13.4
			c-6.9-4.7-8.5-12-7.4-20c0.8-6.3,4.7-10.6,9.8-13.7c9.1-5.4,18.3-10.6,27.5-15.8c11.9-6.8,23.8-13.4,35.6-20.2
			c11.2-6.4,22.2-13.1,33.3-19.5c18.7-10.7,37.5-21.3,56.3-31.9c8.9-5,17.6-10.2,26.5-15.2c4.8-2.8,9.8-5.4,14.6-8L-213.1,256.2z
			 M-231.4,460c4.6-13.4,8.9-26.2,13.6-38.9c1.9-5.1,1.4-11.5,8.5-14.5c4.3-1.8,4.3-8.1,1.4-11.8c-1.9-2.5-7.8-3.5-10.5-1.7
			c-4.4,2.8-5.1,6.7-2.7,11.7c0.7,1.5,0.4,3.5,0.2,5.2s-1.3,3-1.8,4.5c-3,8.8-6,17.6-9,26.5c-1.9,5.5-3.7,11-5.6,16.6L-231.4,460z"
			/>
		<path class="st0" d="M-100.1,127.7c-1.2,3.7-2.2,7.1-3.3,10.5c-4.7,14.7-9.4,29.3-14.2,44c-3.2,9.9-6.7,19.7-9.9,29.6
			c-5.1,15.4-10,30.9-15.1,46.4c-3.8,11.7-7.7,23.4-11.5,35.2c-5.2,16-10.4,31.9-15.7,47.9c-1.1,3.5-2.1,7.1-3.3,10.5
			c-1.7,4.2-5.6,7.2-10.1,7.7c-5.5,0.4-10.6-1.3-15.5-3.2c-4.1-1.5-8.4-3.1-12-5.4c-6-3.9-6-9.7-4.1-15.4c2.6-7.8,5.7-15.4,8.6-23.1
			c3-8,6-16,8.9-24c4.7-13.1,9.2-26.3,14-39.4c4-11.1,8.4-22,12.4-33.1c3.9-10.8,7.5-21.7,11.3-32.5c2.9-8.1,6.1-16.2,9.1-24.3
			c3.6-9.6,7-19.3,10.6-28.9c0.3-0.9,1.5-2.1,2.4-2.1C-125.2,127.7-112.9,127.7-100.1,127.7z"/>
	</g>
</g>
</svg>
